<?xml version="1.0" encoding="UTF-8" standalone="no"?>
<!DOCTYPE svg PUBLIC "-//W3C//DTD SVG 1.1//EN"
 "http://www.w3.org/Graphics/SVG/1.1/DTD/svg11.dtd">
<!-- Generated by graphviz version 2.40.1 (20161225.0304)
 -->
<!-- Title: state transitions Pages: 1 -->
<svg width="259pt" height="446pt"
 viewBox="0.00 0.00 259.00 446.00" xmlns="http://www.w3.org/2000/svg" xmlns:xlink="http://www.w3.org/1999/xlink">
<g id="graph0" class="graph" transform="scale(1 1) rotate(0) translate(4 442)">
<title>state transitions</title>
<polygon fill="#ffffff" stroke="transparent" points="-4,4 -4,-442 255,-442 255,4 -4,4"/>
<g id="clust1" class="cluster state regular">
<title>cluster_state</title>
<path fill="none" stroke="#000000" stroke-width="2" d="M20,-8C20,-8 231,-8 231,-8 237,-8 243,-14 243,-20 243,-20 243,-418 243,-418 243,-424 237,-430 231,-430 231,-430 20,-430 20,-430 14,-430 8,-424 8,-418 8,-418 8,-20 8,-20 8,-14 14,-8 20,-8"/>
<text text-anchor="start" x="112.4944" y="-411.2" font-family="Helvetica,sans-Serif" font-size="12.00" fill="#000000">state</text>
</g>
<!-- state -->
<!-- STATE_IDLE -->
<g id="node2" class="node state regular">
<title>STATE_IDLE</title>
<polygon fill="#ffffff" fill-opacity="0.003922" stroke="transparent" stroke-width="2" points="141,-392 47,-392 47,-356 141,-356 141,-392"/>
<text text-anchor="start" x="57.994" y="-370.2" font-family="Helvetica,sans-Serif" font-size="12.00" fill="#000000">STATE_IDLE</text>
<path fill="none" stroke="#000000" stroke-width="2" d="M59.3333,-357C59.3333,-357 128.6667,-357 128.6667,-357 134.3333,-357 140,-362.6667 140,-368.3333 140,-368.3333 140,-379.6667 140,-379.6667 140,-385.3333 134.3333,-391 128.6667,-391 128.6667,-391 59.3333,-391 59.3333,-391 53.6667,-391 48,-385.3333 48,-379.6667 48,-379.6667 48,-368.3333 48,-368.3333 48,-362.6667 53.6667,-357 59.3333,-357"/>
</g>
<!-- STATE_START -->
<g id="node3" class="node state regular">
<title>STATE_START</title>
<polygon fill="#ffffff" fill-opacity="0.003922" stroke="transparent" stroke-width="2" points="134,-310 28,-310 28,-274 134,-274 134,-310"/>
<text text-anchor="start" x="38.6646" y="-288.2" font-family="Helvetica,sans-Serif" font-size="12.00" fill="#000000">STATE_START</text>
<path fill="none" stroke="#000000" stroke-width="2" d="M40.3333,-275C40.3333,-275 121.6667,-275 121.6667,-275 127.3333,-275 133,-280.6667 133,-286.3333 133,-286.3333 133,-297.6667 133,-297.6667 133,-303.3333 127.3333,-309 121.6667,-309 121.6667,-309 40.3333,-309 40.3333,-309 34.6667,-309 29,-303.3333 29,-297.6667 29,-297.6667 29,-286.3333 29,-286.3333 29,-280.6667 34.6667,-275 40.3333,-275"/>
</g>
<!-- STATE_IDLE&#45;&gt;STATE_START -->
<g id="edge1" class="edge transition">
<title>STATE_IDLE&#45;&gt;STATE_START</title>
<path fill="none" stroke="#000000" d="M91.1149,-355.8015C89.4655,-345.3976 87.3607,-332.1215 85.4988,-320.3768"/>
<polygon fill="#000000" stroke="#000000" points="88.8998,-319.4762 83.8771,-310.1476 81.9861,-320.5723 88.8998,-319.4762"/>
<text text-anchor="start" x="88" y="-330" font-family="Helvetica,sans-Serif" font-size="10.00" fill="#000000">tx_start == 1 &#160;&#160;</text>
</g>
<!-- STATE_DATA -->
<g id="node4" class="node state regular">
<title>STATE_DATA</title>
<polygon fill="#ffffff" fill-opacity="0.003922" stroke="transparent" stroke-width="2" points="115.5,-228 16.5,-228 16.5,-192 115.5,-192 115.5,-228"/>
<text text-anchor="start" x="27.83" y="-206.2" font-family="Helvetica,sans-Serif" font-size="12.00" fill="#000000">STATE_DATA</text>
<path fill="none" stroke="#000000" stroke-width="2" d="M28.8333,-193C28.8333,-193 103.1667,-193 103.1667,-193 108.8333,-193 114.5,-198.6667 114.5,-204.3333 114.5,-204.3333 114.5,-215.6667 114.5,-215.6667 114.5,-221.3333 108.8333,-227 103.1667,-227 103.1667,-227 28.8333,-227 28.8333,-227 23.1667,-227 17.5,-221.3333 17.5,-215.6667 17.5,-215.6667 17.5,-204.3333 17.5,-204.3333 17.5,-198.6667 23.1667,-193 28.8333,-193"/>
</g>
<!-- STATE_START&#45;&gt;STATE_DATA -->
<g id="edge2" class="edge transition">
<title>STATE_START&#45;&gt;STATE_DATA</title>
<path fill="none" stroke="#000000" d="M63.9335,-273.6481C60.2419,-268.6099 56.8611,-262.899 54.904,-257 52.8596,-250.8379 53.0673,-244.1032 54.3517,-237.7062"/>
<polygon fill="#000000" stroke="#000000" points="57.7254,-238.6381 57.0874,-228.0625 50.9911,-236.7277 57.7254,-238.6381"/>
<text text-anchor="start" x="54" y="-248" font-family="Helvetica,sans-Serif" font-size="10.00" fill="#000000">not (clk_count &lt; CLKS_PER_BIT &#45; 1) &#160;&#160;</text>
</g>
<!-- STATE_STOP -->
<g id="node5" class="node state regular">
<title>STATE_STOP</title>
<polygon fill="#ffffff" fill-opacity="0.003922" stroke="transparent" stroke-width="2" points="116,-134 16,-134 16,-98 116,-98 116,-134"/>
<text text-anchor="start" x="26.994" y="-112.2" font-family="Helvetica,sans-Serif" font-size="12.00" fill="#000000">STATE_STOP</text>
<path fill="none" stroke="#000000" stroke-width="2" d="M28.3333,-99C28.3333,-99 103.6667,-99 103.6667,-99 109.3333,-99 115,-104.6667 115,-110.3333 115,-110.3333 115,-121.6667 115,-121.6667 115,-127.3333 109.3333,-133 103.6667,-133 103.6667,-133 28.3333,-133 28.3333,-133 22.6667,-133 17,-127.3333 17,-121.6667 17,-121.6667 17,-110.3333 17,-110.3333 17,-104.6667 22.6667,-99 28.3333,-99"/>
</g>
<!-- STATE_DATA&#45;&gt;STATE_STOP -->
<g id="edge3" class="edge transition">
<title>STATE_DATA&#45;&gt;STATE_STOP</title>
<path fill="none" stroke="#000000" d="M59.0442,-191.7261C57.3409,-186.4116 55.7617,-180.5435 54.904,-175 53.2731,-164.4588 53.2731,-161.5412 54.904,-151 55.2524,-148.7479 55.72,-146.4423 56.2665,-144.142"/>
<polygon fill="#000000" stroke="#000000" points="59.7037,-144.8482 59.0442,-134.2739 52.9655,-142.9515 59.7037,-144.8482"/>
<text text-anchor="start" x="54" y="-166" font-family="Helvetica,sans-Serif" font-size="10.00" fill="#000000">not (bit_index &lt; 7) &#160;&#160;</text>
<text text-anchor="start" x="54" y="-154" font-family="Helvetica,sans-Serif" font-size="10.00" fill="#000000">not (clk_count &lt; CLKS_PER_BIT &#45; 1) &#160;&#160;</text>
</g>
<!-- STATE_CLEAN -->
<g id="node6" class="node state regular">
<title>STATE_CLEAN</title>
<polygon fill="#ffffff" fill-opacity="0.003922" stroke="transparent" stroke-width="2" points="179.5,-52 72.5,-52 72.5,-16 179.5,-16 179.5,-52"/>
<text text-anchor="start" x="83.8286" y="-30.2" font-family="Helvetica,sans-Serif" font-size="12.00" fill="#000000">STATE_CLEAN</text>
<path fill="none" stroke="#000000" stroke-width="2" d="M84.8333,-17C84.8333,-17 167.1667,-17 167.1667,-17 172.8333,-17 178.5,-22.6667 178.5,-28.3333 178.5,-28.3333 178.5,-39.6667 178.5,-39.6667 178.5,-45.3333 172.8333,-51 167.1667,-51 167.1667,-51 84.8333,-51 84.8333,-51 79.1667,-51 73.5,-45.3333 73.5,-39.6667 73.5,-39.6667 73.5,-28.3333 73.5,-28.3333 73.5,-22.6667 79.1667,-17 84.8333,-17"/>
</g>
<!-- STATE_STOP&#45;&gt;STATE_CLEAN -->
<g id="edge4" class="edge transition">
<title>STATE_STOP&#45;&gt;STATE_CLEAN</title>
<path fill="none" stroke="#000000" d="M55.62,-97.987C51.7664,-88.7656 49.4997,-77.6842 54.904,-69 57.4936,-64.8388 60.7392,-61.158 64.4082,-57.9044"/>
<polygon fill="#000000" stroke="#000000" points="66.5992,-60.6356 72.4593,-51.8089 62.3739,-55.0546 66.5992,-60.6356"/>
<text text-anchor="start" x="54" y="-72" font-family="Helvetica,sans-Serif" font-size="10.00" fill="#000000">not (clk_count &lt; CLKS_PER_BIT &#45; 1) &#160;&#160;</text>
</g>
<!-- STATE_CLEAN&#45;&gt;STATE_IDLE -->
<g id="edge5" class="edge transition">
<title>STATE_CLEAN&#45;&gt;STATE_IDLE</title>
<path fill="none" stroke="#000000" d="M179.6836,-44.7909C206.7887,-51.8343 234,-62.1142 234,-75 234,-142.5 234,-142.5 234,-142.5 234,-197.1667 234,-210.8333 234,-265.5 234,-333 234,-333 234,-333 234,-342.0961 189.9108,-353.895 151.2163,-362.4985"/>
<polygon fill="#000000" stroke="#000000" points="150.0323,-359.1743 141.0074,-364.7243 151.5235,-366.0137 150.0323,-359.1743"/>
<text text-anchor="middle" x="235.3895" y="-207" font-family="Helvetica,sans-Serif" font-size="10.00" fill="#000000"> </text>
</g>
</g>
</svg>
