<?xml version="1.0" encoding="UTF-8" standalone="no"?>
<!DOCTYPE svg PUBLIC "-//W3C//DTD SVG 1.1//EN"
 "http://www.w3.org/Graphics/SVG/1.1/DTD/svg11.dtd">
<!-- Generated by graphviz version 2.40.1 (20161225.0304)
 -->
<!-- Title: state transitions Pages: 1 -->
<svg width="267pt" height="446pt"
 viewBox="0.00 0.00 267.00 446.00" xmlns="http://www.w3.org/2000/svg" xmlns:xlink="http://www.w3.org/1999/xlink">
<g id="graph0" class="graph" transform="scale(1 1) rotate(0) translate(4 442)">
<title>state transitions</title>
<polygon fill="#ffffff" stroke="transparent" points="-4,4 -4,-442 263,-442 263,4 -4,4"/>
<g id="clust1" class="cluster state regular">
<title>cluster_state</title>
<path fill="none" stroke="#000000" stroke-width="2" d="M20,-8C20,-8 239,-8 239,-8 245,-8 251,-14 251,-20 251,-20 251,-418 251,-418 251,-424 245,-430 239,-430 239,-430 20,-430 20,-430 14,-430 8,-424 8,-418 8,-418 8,-20 8,-20 8,-14 14,-8 20,-8"/>
<text text-anchor="start" x="116.4944" y="-411.2" font-family="Helvetica,sans-Serif" font-size="12.00" fill="#000000">state</text>
</g>
<!-- state -->
<!-- STATE_IDLE -->
<g id="node2" class="node state regular">
<title>STATE_IDLE</title>
<polygon fill="#ffffff" fill-opacity="0.003922" stroke="transparent" stroke-width="2" points="141,-228 47,-228 47,-192 141,-192 141,-228"/>
<text text-anchor="start" x="57.994" y="-206.2" font-family="Helvetica,sans-Serif" font-size="12.00" fill="#000000">STATE_IDLE</text>
<path fill="none" stroke="#000000" stroke-width="2" d="M59.3333,-193C59.3333,-193 128.6667,-193 128.6667,-193 134.3333,-193 140,-198.6667 140,-204.3333 140,-204.3333 140,-215.6667 140,-215.6667 140,-221.3333 134.3333,-227 128.6667,-227 128.6667,-227 59.3333,-227 59.3333,-227 53.6667,-227 48,-221.3333 48,-215.6667 48,-215.6667 48,-204.3333 48,-204.3333 48,-198.6667 53.6667,-193 59.3333,-193"/>
</g>
<!-- STATE_START -->
<g id="node3" class="node state regular">
<title>STATE_START</title>
<polygon fill="#ffffff" fill-opacity="0.003922" stroke="transparent" stroke-width="2" points="163,-134 57,-134 57,-98 163,-98 163,-134"/>
<text text-anchor="start" x="67.6646" y="-112.2" font-family="Helvetica,sans-Serif" font-size="12.00" fill="#000000">STATE_START</text>
<path fill="none" stroke="#000000" stroke-width="2" d="M69.3333,-99C69.3333,-99 150.6667,-99 150.6667,-99 156.3333,-99 162,-104.6667 162,-110.3333 162,-110.3333 162,-121.6667 162,-121.6667 162,-127.3333 156.3333,-133 150.6667,-133 150.6667,-133 69.3333,-133 69.3333,-133 63.6667,-133 58,-127.3333 58,-121.6667 58,-121.6667 58,-110.3333 58,-110.3333 58,-104.6667 63.6667,-99 69.3333,-99"/>
</g>
<!-- STATE_IDLE&#45;&gt;STATE_START -->
<g id="edge1" class="edge transition">
<title>STATE_IDLE&#45;&gt;STATE_START</title>
<path fill="none" stroke="#000000" d="M67.5131,-191.7773C62.4752,-186.9544 57.9048,-181.3073 55.095,-175 50.7544,-165.2564 49.9658,-160.3525 55.095,-151 57.1436,-147.2646 59.779,-143.8705 62.784,-140.7982"/>
<polygon fill="#000000" stroke="#000000" points="65.1165,-143.4081 70.3642,-134.2041 60.5222,-138.1267 65.1165,-143.4081"/>
<text text-anchor="start" x="55" y="-160" font-family="Helvetica,sans-Serif" font-size="10.00" fill="#000000">rx_serial == 0 &#160;&#160;</text>
</g>
<!-- STATE_START&#45;&gt;STATE_IDLE -->
<g id="edge3" class="edge transition">
<title>STATE_START&#45;&gt;STATE_IDLE</title>
<path fill="none" stroke="#000000" d="M120.2758,-134.1411C125.6107,-145.9811 130.0587,-161.6589 125,-175 123.8848,-177.9411 122.3969,-180.7937 120.6748,-183.5172"/>
<polygon fill="#000000" stroke="#000000" points="117.7232,-181.6203 114.5454,-191.7274 123.3324,-185.808 117.7232,-181.6203"/>
<text text-anchor="start" x="127" y="-166" font-family="Helvetica,sans-Serif" font-size="10.00" fill="#000000">not (clk_count &gt; 0) &#160;&#160;</text>
<text text-anchor="start" x="127" y="-154" font-family="Helvetica,sans-Serif" font-size="10.00" fill="#000000">not (rx_serial == 0) &#160;&#160;</text>
</g>
<!-- STATE_DATA -->
<g id="node4" class="node state regular">
<title>STATE_DATA</title>
<polygon fill="#ffffff" fill-opacity="0.003922" stroke="transparent" stroke-width="2" points="159.5,-52 60.5,-52 60.5,-16 159.5,-16 159.5,-52"/>
<text text-anchor="start" x="71.83" y="-30.2" font-family="Helvetica,sans-Serif" font-size="12.00" fill="#000000">STATE_DATA</text>
<path fill="none" stroke="#000000" stroke-width="2" d="M72.8333,-17C72.8333,-17 147.1667,-17 147.1667,-17 152.8333,-17 158.5,-22.6667 158.5,-28.3333 158.5,-28.3333 158.5,-39.6667 158.5,-39.6667 158.5,-45.3333 152.8333,-51 147.1667,-51 147.1667,-51 72.8333,-51 72.8333,-51 67.1667,-51 61.5,-45.3333 61.5,-39.6667 61.5,-39.6667 61.5,-28.3333 61.5,-28.3333 61.5,-22.6667 67.1667,-17 72.8333,-17"/>
</g>
<!-- STATE_START&#45;&gt;STATE_DATA -->
<g id="edge2" class="edge transition">
<title>STATE_START&#45;&gt;STATE_DATA</title>
<path fill="none" stroke="#000000" d="M110,-97.8015C110,-87.3976 110,-74.1215 110,-62.3768"/>
<polygon fill="#000000" stroke="#000000" points="113.5001,-62.1476 110,-52.1476 106.5001,-62.1476 113.5001,-62.1476"/>
<text text-anchor="start" x="110" y="-72" font-family="Helvetica,sans-Serif" font-size="10.00" fill="#000000">rx_serial == 0 &#160;&#160;</text>
</g>
<!-- STATE_STOP -->
<g id="node5" class="node state regular">
<title>STATE_STOP</title>
<polygon fill="#ffffff" fill-opacity="0.003922" stroke="transparent" stroke-width="2" points="144,-392 44,-392 44,-356 144,-356 144,-392"/>
<text text-anchor="start" x="54.994" y="-370.2" font-family="Helvetica,sans-Serif" font-size="12.00" fill="#000000">STATE_STOP</text>
<path fill="none" stroke="#000000" stroke-width="2" d="M56.3333,-357C56.3333,-357 131.6667,-357 131.6667,-357 137.3333,-357 143,-362.6667 143,-368.3333 143,-368.3333 143,-379.6667 143,-379.6667 143,-385.3333 137.3333,-391 131.6667,-391 131.6667,-391 56.3333,-391 56.3333,-391 50.6667,-391 45,-385.3333 45,-379.6667 45,-379.6667 45,-368.3333 45,-368.3333 45,-362.6667 50.6667,-357 56.3333,-357"/>
</g>
<!-- STATE_CLEAN -->
<g id="node6" class="node state regular">
<title>STATE_CLEAN</title>
<polygon fill="#ffffff" fill-opacity="0.003922" stroke="transparent" stroke-width="2" points="147.5,-310 40.5,-310 40.5,-274 147.5,-274 147.5,-310"/>
<text text-anchor="start" x="51.8286" y="-288.2" font-family="Helvetica,sans-Serif" font-size="12.00" fill="#000000">STATE_CLEAN</text>
<path fill="none" stroke="#000000" stroke-width="2" d="M52.8333,-275C52.8333,-275 135.1667,-275 135.1667,-275 140.8333,-275 146.5,-280.6667 146.5,-286.3333 146.5,-286.3333 146.5,-297.6667 146.5,-297.6667 146.5,-303.3333 140.8333,-309 135.1667,-309 135.1667,-309 52.8333,-309 52.8333,-309 47.1667,-309 41.5,-303.3333 41.5,-297.6667 41.5,-297.6667 41.5,-286.3333 41.5,-286.3333 41.5,-280.6667 47.1667,-275 52.8333,-275"/>
</g>
<!-- STATE_STOP&#45;&gt;STATE_CLEAN -->
<g id="edge4" class="edge transition">
<title>STATE_STOP&#45;&gt;STATE_CLEAN</title>
<path fill="none" stroke="#000000" d="M94,-355.8015C94,-345.3976 94,-332.1215 94,-320.3768"/>
<polygon fill="#000000" stroke="#000000" points="97.5001,-320.1476 94,-310.1476 90.5001,-320.1476 97.5001,-320.1476"/>
<text text-anchor="start" x="94" y="-330" font-family="Helvetica,sans-Serif" font-size="10.00" fill="#000000">not (clk_count &gt; 0) &#160;&#160;</text>
</g>
<!-- STATE_CLEAN&#45;&gt;STATE_IDLE -->
<g id="edge5" class="edge transition">
<title>STATE_CLEAN&#45;&gt;STATE_IDLE</title>
<path fill="none" stroke="#000000" d="M94,-273.8015C94,-263.3976 94,-250.1215 94,-238.3768"/>
<polygon fill="#000000" stroke="#000000" points="97.5001,-238.1476 94,-228.1476 90.5001,-238.1476 97.5001,-238.1476"/>
<text text-anchor="middle" x="95.3895" y="-248" font-family="Helvetica,sans-Serif" font-size="10.00" fill="#000000"> </text>
</g>
</g>
</svg>
