<?xml version="1.0" encoding="UTF-8" standalone="no"?>
<!DOCTYPE svg PUBLIC "-//W3C//DTD SVG 1.1//EN"
 "http://www.w3.org/Graphics/SVG/1.1/DTD/svg11.dtd">
<!-- Generated by graphviz version 2.40.1 (20161225.0304)
 -->
<!-- Title: state transitions Pages: 1 -->
<svg width="273pt" height="856pt"
 viewBox="0.00 0.00 273.49 856.00" xmlns="http://www.w3.org/2000/svg" xmlns:xlink="http://www.w3.org/1999/xlink">
<g id="graph0" class="graph" transform="scale(1 1) rotate(0) translate(4 852)">
<title>state transitions</title>
<polygon fill="#ffffff" stroke="transparent" points="-4,4 -4,-852 269.492,-852 269.492,4 -4,4"/>
<g id="clust1" class="cluster state regular">
<title>cluster_tx_state</title>
<path fill="none" stroke="#000000" stroke-width="2" d="M20,-8C20,-8 228,-8 228,-8 234,-8 240,-14 240,-20 240,-20 240,-828 240,-828 240,-834 234,-840 228,-840 228,-840 20,-840 20,-840 14,-840 8,-834 8,-828 8,-828 8,-20 8,-20 8,-14 14,-8 20,-8"/>
<text text-anchor="start" x="102.9916" y="-821.2" font-family="Helvetica,sans-Serif" font-size="12.00" fill="#000000">tx_state</text>
</g>
<!-- tx_state -->
<!-- ST_SOF -->
<g id="node2" class="node state regular">
<title>ST_SOF</title>
<polygon fill="#ffffff" fill-opacity="0.003922" stroke="transparent" stroke-width="2" points="102,-802 34,-802 34,-766 102,-766 102,-802"/>
<text text-anchor="start" x="44.6636" y="-780.2" font-family="Helvetica,sans-Serif" font-size="12.00" fill="#000000">ST_SOF</text>
<path fill="none" stroke="#000000" stroke-width="2" d="M46.3333,-767C46.3333,-767 89.6667,-767 89.6667,-767 95.3333,-767 101,-772.6667 101,-778.3333 101,-778.3333 101,-789.6667 101,-789.6667 101,-795.3333 95.3333,-801 89.6667,-801 89.6667,-801 46.3333,-801 46.3333,-801 40.6667,-801 35,-795.3333 35,-789.6667 35,-789.6667 35,-778.3333 35,-778.3333 35,-772.6667 40.6667,-767 46.3333,-767"/>
</g>
<!-- ST_ARB -->
<g id="node3" class="node state regular">
<title>ST_ARB</title>
<polygon fill="#ffffff" fill-opacity="0.003922" stroke="transparent" stroke-width="2" points="102,-720 34,-720 34,-684 102,-684 102,-720"/>
<text text-anchor="start" x="44.6636" y="-698.2" font-family="Helvetica,sans-Serif" font-size="12.00" fill="#000000">ST_ARB</text>
<path fill="none" stroke="#000000" stroke-width="2" d="M46.3333,-685C46.3333,-685 89.6667,-685 89.6667,-685 95.3333,-685 101,-690.6667 101,-696.3333 101,-696.3333 101,-707.6667 101,-707.6667 101,-713.3333 95.3333,-719 89.6667,-719 89.6667,-719 46.3333,-719 46.3333,-719 40.6667,-719 35,-713.3333 35,-707.6667 35,-707.6667 35,-696.3333 35,-696.3333 35,-690.6667 40.6667,-685 46.3333,-685"/>
</g>
<!-- ST_SOF&#45;&gt;ST_ARB -->
<g id="edge1" class="edge transition">
<title>ST_SOF&#45;&gt;ST_ARB</title>
<path fill="none" stroke="#000000" d="M68,-765.8015C68,-755.3976 68,-742.1215 68,-730.3768"/>
<polygon fill="#000000" stroke="#000000" points="71.5001,-730.1476 68,-720.1476 64.5001,-730.1476 71.5001,-730.1476"/>
<text text-anchor="middle" x="69.3895" y="-740" font-family="Helvetica,sans-Serif" font-size="10.00" fill="#000000"> </text>
</g>
<!-- ST_CTRL -->
<g id="node4" class="node state regular">
<title>ST_CTRL</title>
<polygon fill="#ffffff" fill-opacity="0.003922" stroke="transparent" stroke-width="2" points="105.5,-638 30.5,-638 30.5,-602 105.5,-602 105.5,-638"/>
<text text-anchor="start" x="41.8342" y="-616.2" font-family="Helvetica,sans-Serif" font-size="12.00" fill="#000000">ST_CTRL</text>
<path fill="none" stroke="#000000" stroke-width="2" d="M42.8333,-603C42.8333,-603 93.1667,-603 93.1667,-603 98.8333,-603 104.5,-608.6667 104.5,-614.3333 104.5,-614.3333 104.5,-625.6667 104.5,-625.6667 104.5,-631.3333 98.8333,-637 93.1667,-637 93.1667,-637 42.8333,-637 42.8333,-637 37.1667,-637 31.5,-631.3333 31.5,-625.6667 31.5,-625.6667 31.5,-614.3333 31.5,-614.3333 31.5,-608.6667 37.1667,-603 42.8333,-603"/>
</g>
<!-- ST_ARB&#45;&gt;ST_CTRL -->
<g id="edge2" class="edge transition">
<title>ST_ARB&#45;&gt;ST_CTRL</title>
<path fill="none" stroke="#000000" d="M68,-683.8015C68,-673.3976 68,-660.1215 68,-648.3768"/>
<polygon fill="#000000" stroke="#000000" points="71.5001,-648.1476 68,-638.1476 64.5001,-648.1476 71.5001,-648.1476"/>
<text text-anchor="start" x="68" y="-658" font-family="Helvetica,sans-Serif" font-size="10.00" fill="#000000">tx_bit_counter == 0 &#160;&#160;</text>
</g>
<!-- ST_DATA -->
<g id="node5" class="node state regular">
<title>ST_DATA</title>
<polygon fill="#ffffff" fill-opacity="0.003922" stroke="transparent" stroke-width="2" points="232,-544 156,-544 156,-508 232,-508 232,-544"/>
<text text-anchor="start" x="166.9982" y="-522.2" font-family="Helvetica,sans-Serif" font-size="12.00" fill="#000000">ST_DATA</text>
<path fill="none" stroke="#000000" stroke-width="2" d="M168.3333,-509C168.3333,-509 219.6667,-509 219.6667,-509 225.3333,-509 231,-514.6667 231,-520.3333 231,-520.3333 231,-531.6667 231,-531.6667 231,-537.3333 225.3333,-543 219.6667,-543 219.6667,-543 168.3333,-543 168.3333,-543 162.6667,-543 157,-537.3333 157,-531.6667 157,-531.6667 157,-520.3333 157,-520.3333 157,-514.6667 162.6667,-509 168.3333,-509"/>
</g>
<!-- ST_CTRL&#45;&gt;ST_DATA -->
<g id="edge4" class="edge transition">
<title>ST_CTRL&#45;&gt;ST_DATA</title>
<path fill="none" stroke="#000000" d="M92.2941,-601.8759C111.9911,-587.1812 139.9298,-566.3381 161.5423,-550.2145"/>
<polygon fill="#000000" stroke="#000000" points="163.8581,-552.8535 169.7805,-544.0685 159.6724,-547.2428 163.8581,-552.8535"/>
<text text-anchor="start" x="146" y="-576" font-family="Helvetica,sans-Serif" font-size="10.00" fill="#000000">not (data_bits_total == 0) &#160;&#160;</text>
<text text-anchor="start" x="146" y="-564" font-family="Helvetica,sans-Serif" font-size="10.00" fill="#000000">tx_bit_counter == 0 &#160;&#160;</text>
</g>
<!-- ST_CRC -->
<g id="node6" class="node state regular">
<title>ST_CRC</title>
<polygon fill="#ffffff" fill-opacity="0.003922" stroke="transparent" stroke-width="2" points="125.5,-462 56.5,-462 56.5,-426 125.5,-426 125.5,-462"/>
<text text-anchor="start" x="67.5036" y="-440.2" font-family="Helvetica,sans-Serif" font-size="12.00" fill="#000000">ST_CRC</text>
<path fill="none" stroke="#000000" stroke-width="2" d="M68.8333,-427C68.8333,-427 113.1667,-427 113.1667,-427 118.8333,-427 124.5,-432.6667 124.5,-438.3333 124.5,-438.3333 124.5,-449.6667 124.5,-449.6667 124.5,-455.3333 118.8333,-461 113.1667,-461 113.1667,-461 68.8333,-461 68.8333,-461 63.1667,-461 57.5,-455.3333 57.5,-449.6667 57.5,-449.6667 57.5,-438.3333 57.5,-438.3333 57.5,-432.6667 63.1667,-427 68.8333,-427"/>
</g>
<!-- ST_CTRL&#45;&gt;ST_CRC -->
<g id="edge3" class="edge transition">
<title>ST_CTRL&#45;&gt;ST_CRC</title>
<path fill="none" stroke="#000000" d="M49.8568,-601.9659C43.5389,-593.8234 38,-583.6483 38,-573 38,-573 38,-573 38,-485 38,-476.7386 42.0785,-469.9056 47.9728,-464.3443"/>
<polygon fill="#000000" stroke="#000000" points="50.4588,-466.847 56.2396,-457.9682 46.1836,-461.3041 50.4588,-466.847"/>
<text text-anchor="start" x="38" y="-529" font-family="Helvetica,sans-Serif" font-size="10.00" fill="#000000">data_bits_total == 0 &#160;&#160;</text>
<text text-anchor="start" x="38" y="-517" font-family="Helvetica,sans-Serif" font-size="10.00" fill="#000000">tx_bit_counter == 0 &#160;&#160;</text>
</g>
<!-- ST_DATA&#45;&gt;ST_CRC -->
<g id="edge5" class="edge transition">
<title>ST_DATA&#45;&gt;ST_CRC</title>
<path fill="none" stroke="#000000" d="M171.141,-507.8015C156.6058,-496.2298 137.6075,-481.105 121.7568,-468.486"/>
<polygon fill="#000000" stroke="#000000" points="123.7986,-465.6378 113.7951,-462.1476 119.4387,-471.1143 123.7986,-465.6378"/>
<text text-anchor="start" x="149" y="-482" font-family="Helvetica,sans-Serif" font-size="10.00" fill="#000000">tx_bit_counter == 0 &#160;&#160;</text>
</g>
<!-- ST_CRC_DELIM -->
<g id="node7" class="node state regular">
<title>ST_CRC_DELIM</title>
<polygon fill="#ffffff" fill-opacity="0.003922" stroke="transparent" stroke-width="2" points="147.5,-380 34.5,-380 34.5,-344 147.5,-344 147.5,-380"/>
<text text-anchor="start" x="45.8352" y="-358.2" font-family="Helvetica,sans-Serif" font-size="12.00" fill="#000000">ST_CRC_DELIM</text>
<path fill="none" stroke="#000000" stroke-width="2" d="M46.8333,-345C46.8333,-345 135.1667,-345 135.1667,-345 140.8333,-345 146.5,-350.6667 146.5,-356.3333 146.5,-356.3333 146.5,-367.6667 146.5,-367.6667 146.5,-373.3333 140.8333,-379 135.1667,-379 135.1667,-379 46.8333,-379 46.8333,-379 41.1667,-379 35.5,-373.3333 35.5,-367.6667 35.5,-367.6667 35.5,-356.3333 35.5,-356.3333 35.5,-350.6667 41.1667,-345 46.8333,-345"/>
</g>
<!-- ST_CRC&#45;&gt;ST_CRC_DELIM -->
<g id="edge6" class="edge transition">
<title>ST_CRC&#45;&gt;ST_CRC_DELIM</title>
<path fill="none" stroke="#000000" d="M91,-425.8015C91,-415.3976 91,-402.1215 91,-390.3768"/>
<polygon fill="#000000" stroke="#000000" points="94.5001,-390.1476 91,-380.1476 87.5001,-390.1476 94.5001,-390.1476"/>
<text text-anchor="start" x="91" y="-400" font-family="Helvetica,sans-Serif" font-size="10.00" fill="#000000">tx_bit_counter == 0 &#160;&#160;</text>
</g>
<!-- ST_ACK -->
<g id="node8" class="node state regular">
<title>ST_ACK</title>
<polygon fill="#ffffff" fill-opacity="0.003922" stroke="transparent" stroke-width="2" points="125,-298 57,-298 57,-262 125,-262 125,-298"/>
<text text-anchor="start" x="67.6636" y="-276.2" font-family="Helvetica,sans-Serif" font-size="12.00" fill="#000000">ST_ACK</text>
<path fill="none" stroke="#000000" stroke-width="2" d="M69.3333,-263C69.3333,-263 112.6667,-263 112.6667,-263 118.3333,-263 124,-268.6667 124,-274.3333 124,-274.3333 124,-285.6667 124,-285.6667 124,-291.3333 118.3333,-297 112.6667,-297 112.6667,-297 69.3333,-297 69.3333,-297 63.6667,-297 58,-291.3333 58,-285.6667 58,-285.6667 58,-274.3333 58,-274.3333 58,-268.6667 63.6667,-263 69.3333,-263"/>
</g>
<!-- ST_CRC_DELIM&#45;&gt;ST_ACK -->
<g id="edge7" class="edge transition">
<title>ST_CRC_DELIM&#45;&gt;ST_ACK</title>
<path fill="none" stroke="#000000" d="M91,-343.8015C91,-333.3976 91,-320.1215 91,-308.3768"/>
<polygon fill="#000000" stroke="#000000" points="94.5001,-308.1476 91,-298.1476 87.5001,-308.1476 94.5001,-308.1476"/>
<text text-anchor="middle" x="92.3895" y="-318" font-family="Helvetica,sans-Serif" font-size="10.00" fill="#000000"> </text>
</g>
<!-- ST_ACK_DELIM -->
<g id="node9" class="node state regular">
<title>ST_ACK_DELIM</title>
<polygon fill="#ffffff" fill-opacity="0.003922" stroke="transparent" stroke-width="2" points="147,-216 35,-216 35,-180 147,-180 147,-216"/>
<text text-anchor="start" x="45.9952" y="-194.2" font-family="Helvetica,sans-Serif" font-size="12.00" fill="#000000">ST_ACK_DELIM</text>
<path fill="none" stroke="#000000" stroke-width="2" d="M47.3333,-181C47.3333,-181 134.6667,-181 134.6667,-181 140.3333,-181 146,-186.6667 146,-192.3333 146,-192.3333 146,-203.6667 146,-203.6667 146,-209.3333 140.3333,-215 134.6667,-215 134.6667,-215 47.3333,-215 47.3333,-215 41.6667,-215 36,-209.3333 36,-203.6667 36,-203.6667 36,-192.3333 36,-192.3333 36,-186.6667 41.6667,-181 47.3333,-181"/>
</g>
<!-- ST_ACK&#45;&gt;ST_ACK_DELIM -->
<g id="edge8" class="edge transition">
<title>ST_ACK&#45;&gt;ST_ACK_DELIM</title>
<path fill="none" stroke="#000000" d="M91,-261.8015C91,-251.3976 91,-238.1215 91,-226.3768"/>
<polygon fill="#000000" stroke="#000000" points="94.5001,-226.1476 91,-216.1476 87.5001,-226.1476 94.5001,-226.1476"/>
<text text-anchor="middle" x="92.3895" y="-236" font-family="Helvetica,sans-Serif" font-size="10.00" fill="#000000"> </text>
</g>
<!-- ST_EOF -->
<g id="node10" class="node state regular">
<title>ST_EOF</title>
<polygon fill="#ffffff" fill-opacity="0.003922" stroke="transparent" stroke-width="2" points="125,-134 57,-134 57,-98 125,-98 125,-134"/>
<text text-anchor="start" x="67.6636" y="-112.2" font-family="Helvetica,sans-Serif" font-size="12.00" fill="#000000">ST_EOF</text>
<path fill="none" stroke="#000000" stroke-width="2" d="M69.3333,-99C69.3333,-99 112.6667,-99 112.6667,-99 118.3333,-99 124,-104.6667 124,-110.3333 124,-110.3333 124,-121.6667 124,-121.6667 124,-127.3333 118.3333,-133 112.6667,-133 112.6667,-133 69.3333,-133 69.3333,-133 63.6667,-133 58,-127.3333 58,-121.6667 58,-121.6667 58,-110.3333 58,-110.3333 58,-104.6667 63.6667,-99 69.3333,-99"/>
</g>
<!-- ST_ACK_DELIM&#45;&gt;ST_EOF -->
<g id="edge9" class="edge transition">
<title>ST_ACK_DELIM&#45;&gt;ST_EOF</title>
<path fill="none" stroke="#000000" d="M91,-179.8015C91,-169.3976 91,-156.1215 91,-144.3768"/>
<polygon fill="#000000" stroke="#000000" points="94.5001,-144.1476 91,-134.1476 87.5001,-144.1476 94.5001,-144.1476"/>
<text text-anchor="middle" x="92.3895" y="-154" font-family="Helvetica,sans-Serif" font-size="10.00" fill="#000000"> </text>
</g>
<!-- ST_IDLE -->
<g id="node11" class="node state regular">
<title>ST_IDLE</title>
<polygon fill="#ffffff" fill-opacity="0.003922" stroke="transparent" stroke-width="2" points="126,-52 56,-52 56,-16 126,-16 126,-52"/>
<text text-anchor="start" x="66.6622" y="-30.2" font-family="Helvetica,sans-Serif" font-size="12.00" fill="#000000">ST_IDLE</text>
<path fill="none" stroke="#ff0000" stroke-width="2" d="M68.3333,-17C68.3333,-17 113.6667,-17 113.6667,-17 119.3333,-17 125,-22.6667 125,-28.3333 125,-28.3333 125,-39.6667 125,-39.6667 125,-45.3333 119.3333,-51 113.6667,-51 113.6667,-51 68.3333,-51 68.3333,-51 62.6667,-51 57,-45.3333 57,-39.6667 57,-39.6667 57,-28.3333 57,-28.3333 57,-22.6667 62.6667,-17 68.3333,-17"/>
</g>
<!-- ST_EOF&#45;&gt;ST_IDLE -->
<g id="edge10" class="edge transition">
<title>ST_EOF&#45;&gt;ST_IDLE</title>
<path fill="none" stroke="#ff0000" d="M91,-97.8015C91,-87.3976 91,-74.1215 91,-62.3768"/>
<polygon fill="#ff0000" stroke="#ff0000" points="94.5001,-62.1476 91,-52.1476 87.5001,-62.1476 94.5001,-62.1476"/>
<text text-anchor="start" x="91" y="-72" font-family="Helvetica,sans-Serif" font-size="10.00" fill="#ff0000">tx_bit_counter == 0 &#160;&#160;</text>
</g>
</g>
</svg>
