<?xml version="1.0" encoding="UTF-8" standalone="no"?>
<!DOCTYPE svg PUBLIC "-//W3C//DTD SVG 1.1//EN"
 "http://www.w3.org/Graphics/SVG/1.1/DTD/svg11.dtd">
<!-- Generated by graphviz version 2.40.1 (20161225.0304)
 -->
<!-- Title: state transitions Pages: 1 -->
<svg width="310pt" height="446pt"
 viewBox="0.00 0.00 310.00 446.00" xmlns="http://www.w3.org/2000/svg" xmlns:xlink="http://www.w3.org/1999/xlink">
<g id="graph0" class="graph" transform="scale(1 1) rotate(0) translate(4 442)">
<title>state transitions</title>
<polygon fill="#ffffff" stroke="transparent" points="-4,4 -4,-442 306,-442 306,4 -4,4"/>
<g id="clust1" class="cluster state regular">
<title>cluster_state</title>
<path fill="none" stroke="#000000" stroke-width="2" d="M20,-8C20,-8 282,-8 282,-8 288,-8 294,-14 294,-20 294,-20 294,-418 294,-418 294,-424 288,-430 282,-430 282,-430 20,-430 20,-430 14,-430 8,-424 8,-418 8,-418 8,-20 8,-20 8,-14 14,-8 20,-8"/>
<text text-anchor="start" x="137.9944" y="-411.2" font-family="Helvetica,sans-Serif" font-size="12.00" fill="#000000">state</text>
</g>
<!-- state -->
<!-- STATE_IDLE -->
<g id="node2" class="node state regular">
<title>STATE_IDLE</title>
<polygon fill="#ffffff" fill-opacity="0.003922" stroke="transparent" stroke-width="2" points="153,-392 59,-392 59,-356 153,-356 153,-392"/>
<text text-anchor="start" x="69.994" y="-370.2" font-family="Helvetica,sans-Serif" font-size="12.00" fill="#000000">STATE_IDLE</text>
<path fill="none" stroke="#000000" stroke-width="2" d="M71.3333,-357C71.3333,-357 140.6667,-357 140.6667,-357 146.3333,-357 152,-362.6667 152,-368.3333 152,-368.3333 152,-379.6667 152,-379.6667 152,-385.3333 146.3333,-391 140.6667,-391 140.6667,-391 71.3333,-391 71.3333,-391 65.6667,-391 60,-385.3333 60,-379.6667 60,-379.6667 60,-368.3333 60,-368.3333 60,-362.6667 65.6667,-357 71.3333,-357"/>
</g>
<!-- STATE_START -->
<g id="node3" class="node state regular">
<title>STATE_START</title>
<polygon fill="#ffffff" fill-opacity="0.003922" stroke="transparent" stroke-width="2" points="140,-310 34,-310 34,-274 140,-274 140,-310"/>
<text text-anchor="start" x="44.6646" y="-288.2" font-family="Helvetica,sans-Serif" font-size="12.00" fill="#000000">STATE_START</text>
<path fill="none" stroke="#000000" stroke-width="2" d="M46.3333,-275C46.3333,-275 127.6667,-275 127.6667,-275 133.3333,-275 139,-280.6667 139,-286.3333 139,-286.3333 139,-297.6667 139,-297.6667 139,-303.3333 133.3333,-309 127.6667,-309 127.6667,-309 46.3333,-309 46.3333,-309 40.6667,-309 35,-303.3333 35,-297.6667 35,-297.6667 35,-286.3333 35,-286.3333 35,-280.6667 40.6667,-275 46.3333,-275"/>
</g>
<!-- STATE_IDLE&#45;&gt;STATE_START -->
<g id="edge1" class="edge transition">
<title>STATE_IDLE&#45;&gt;STATE_START</title>
<path fill="none" stroke="#000000" d="M101.7833,-355.8015C99.348,-345.2915 96.2336,-331.8503 93.4919,-320.0177"/>
<polygon fill="#000000" stroke="#000000" points="96.8719,-319.0994 91.2049,-310.1476 90.0526,-320.6796 96.8719,-319.0994"/>
<text text-anchor="start" x="97" y="-330" font-family="Helvetica,sans-Serif" font-size="10.00" fill="#000000">tx_start == 1 &#160;&#160;</text>
</g>
<!-- STATE_DATA -->
<g id="node4" class="node state regular">
<title>STATE_DATA</title>
<polygon fill="#ffffff" fill-opacity="0.003922" stroke="transparent" stroke-width="2" points="115.5,-228 16.5,-228 16.5,-192 115.5,-192 115.5,-228"/>
<text text-anchor="start" x="27.83" y="-206.2" font-family="Helvetica,sans-Serif" font-size="12.00" fill="#000000">STATE_DATA</text>
<path fill="none" stroke="#000000" stroke-width="2" d="M28.8333,-193C28.8333,-193 103.1667,-193 103.1667,-193 108.8333,-193 114.5,-198.6667 114.5,-204.3333 114.5,-204.3333 114.5,-215.6667 114.5,-215.6667 114.5,-221.3333 108.8333,-227 103.1667,-227 103.1667,-227 28.8333,-227 28.8333,-227 23.1667,-227 17.5,-221.3333 17.5,-215.6667 17.5,-215.6667 17.5,-204.3333 17.5,-204.3333 17.5,-198.6667 23.1667,-193 28.8333,-193"/>
</g>
<!-- STATE_START&#45;&gt;STATE_DATA -->
<g id="edge2" class="edge transition">
<title>STATE_START&#45;&gt;STATE_DATA</title>
<path fill="none" stroke="#000000" d="M66.0278,-273.7905C61.6761,-268.828 57.7016,-263.1164 55.346,-257 53.0175,-250.9539 53.0725,-244.2651 54.2822,-237.8755"/>
<polygon fill="#000000" stroke="#000000" points="57.6611,-238.788 56.9568,-228.2166 50.915,-236.9199 57.6611,-238.788"/>
<text text-anchor="start" x="55" y="-248" font-family="Helvetica,sans-Serif" font-size="10.00" fill="#000000">not (clk_count &lt; (CLKS_PER_BIT[15:0] &#45; 16&#39;d1)) &#160;&#160;</text>
</g>
<!-- STATE_STOP -->
<g id="node5" class="node state regular">
<title>STATE_STOP</title>
<polygon fill="#ffffff" fill-opacity="0.003922" stroke="transparent" stroke-width="2" points="116,-134 16,-134 16,-98 116,-98 116,-134"/>
<text text-anchor="start" x="26.994" y="-112.2" font-family="Helvetica,sans-Serif" font-size="12.00" fill="#000000">STATE_STOP</text>
<path fill="none" stroke="#000000" stroke-width="2" d="M28.3333,-99C28.3333,-99 103.6667,-99 103.6667,-99 109.3333,-99 115,-104.6667 115,-110.3333 115,-110.3333 115,-121.6667 115,-121.6667 115,-127.3333 109.3333,-133 103.6667,-133 103.6667,-133 28.3333,-133 28.3333,-133 22.6667,-133 17,-127.3333 17,-121.6667 17,-121.6667 17,-110.3333 17,-110.3333 17,-104.6667 22.6667,-99 28.3333,-99"/>
</g>
<!-- STATE_DATA&#45;&gt;STATE_STOP -->
<g id="edge3" class="edge transition">
<title>STATE_DATA&#45;&gt;STATE_STOP</title>
<path fill="none" stroke="#000000" d="M59.3203,-191.7068C57.6849,-186.392 56.1688,-180.5286 55.346,-175 53.7758,-164.4495 53.7758,-161.5505 55.346,-151 55.6803,-148.754 56.1289,-146.4528 56.6536,-144.1555"/>
<polygon fill="#000000" stroke="#000000" points="60.0887,-144.8602 59.3203,-134.2932 53.3313,-143.0329 60.0887,-144.8602"/>
<text text-anchor="start" x="55" y="-166" font-family="Helvetica,sans-Serif" font-size="10.00" fill="#000000">not (bit_index &lt; 7) &#160;&#160;</text>
<text text-anchor="start" x="55" y="-154" font-family="Helvetica,sans-Serif" font-size="10.00" fill="#000000">not (clk_count &lt; (CLKS_PER_BIT[15:0] &#45; 16&#39;d1)) &#160;&#160;</text>
</g>
<!-- STATE_CLEAN -->
<g id="node6" class="node state regular">
<title>STATE_CLEAN</title>
<polygon fill="#ffffff" fill-opacity="0.003922" stroke="transparent" stroke-width="2" points="204.5,-52 97.5,-52 97.5,-16 204.5,-16 204.5,-52"/>
<text text-anchor="start" x="108.8286" y="-30.2" font-family="Helvetica,sans-Serif" font-size="12.00" fill="#000000">STATE_CLEAN</text>
<path fill="none" stroke="#000000" stroke-width="2" d="M109.8333,-17C109.8333,-17 192.1667,-17 192.1667,-17 197.8333,-17 203.5,-22.6667 203.5,-28.3333 203.5,-28.3333 203.5,-39.6667 203.5,-39.6667 203.5,-45.3333 197.8333,-51 192.1667,-51 192.1667,-51 109.8333,-51 109.8333,-51 104.1667,-51 98.5,-45.3333 98.5,-39.6667 98.5,-39.6667 98.5,-28.3333 98.5,-28.3333 98.5,-22.6667 104.1667,-17 109.8333,-17"/>
</g>
<!-- STATE_STOP&#45;&gt;STATE_CLEAN -->
<g id="edge4" class="edge transition">
<title>STATE_STOP&#45;&gt;STATE_CLEAN</title>
<path fill="none" stroke="#000000" d="M55.4922,-97.7257C51.6439,-88.4328 49.4984,-77.3664 55.346,-69 59.8552,-62.5485 72.7956,-56.3514 87.758,-51.0121"/>
<polygon fill="#000000" stroke="#000000" points="88.9196,-54.3141 97.2782,-47.8038 86.6841,-47.6807 88.9196,-54.3141"/>
<text text-anchor="start" x="55" y="-72" font-family="Helvetica,sans-Serif" font-size="10.00" fill="#000000">not (clk_count &lt; (CLKS_PER_BIT[15:0] &#45; 16&#39;d1)) &#160;&#160;</text>
</g>
<!-- STATE_CLEAN&#45;&gt;STATE_IDLE -->
<g id="edge5" class="edge transition">
<title>STATE_CLEAN&#45;&gt;STATE_IDLE</title>
<path fill="none" stroke="#000000" d="M204.7308,-40.4919C242.0107,-46.551 285,-57.3618 285,-75 285,-142.5 285,-142.5 285,-142.5 285,-197.1667 285,-210.8333 285,-265.5 285,-333 285,-333 285,-333 285,-345.7291 215.334,-358.533 162.925,-366.3642"/>
<polygon fill="#000000" stroke="#000000" points="162.4166,-362.9013 153.0301,-367.8151 163.4321,-369.8272 162.4166,-362.9013"/>
<text text-anchor="middle" x="286.3895" y="-207" font-family="Helvetica,sans-Serif" font-size="10.00" fill="#000000"> </text>
</g>
</g>
</svg>
